<svg xmlns="http://www.w3.org/2000/svg" xmlns:xlink="http://www.w3.org/1999/xlink" width="500" zoomAndPan="magnify" viewBox="0 0 375 374.999991" height="500" preserveAspectRatio="xMidYMid meet" version="1.0"><defs><clipPath id="438b9fa2a2"><path d="M 123.726562 310 L 245 310 L 245 337.496094 L 123.726562 337.496094 Z M 123.726562 310 " clip-rule="nonzero"/></clipPath><clipPath id="e5baa62145"><path d="M 99.214844 37.5 L 268.832031 37.5 L 268.832031 305 L 99.214844 305 Z M 99.214844 37.5 " clip-rule="nonzero"/></clipPath><clipPath id="90be1ddc8e"><path d="M 0 0 L 1.15625 0 L 1.15625 2.316406 L 0 2.316406 Z M 0 0 " clip-rule="nonzero"/></clipPath><clipPath id="ee837ea1cd"><path d="M 0 0 C -0.640625 0 -1.15625 0.519531 -1.15625 1.15625 C -1.15625 1.796875 -0.640625 2.316406 0 2.316406 C 0.640625 2.316406 1.15625 1.796875 1.15625 1.15625 C 1.15625 0.519531 0.640625 0 0 0 Z M 0 0 " clip-rule="nonzero"/></clipPath></defs><g clip-path="url(#438b9fa2a2)"><path fill="#7289da" d="M 130.023438 310.785156 L 123.992188 337.496094 C 130.675781 337.496094 237.371094 337.496094 244.050781 337.496094 L 238.019531 310.785156 C 234.976562 310.785156 133.070312 310.785156 130.023438 310.785156 " fill-opacity="1" fill-rule="nonzero"/></g><g clip-path="url(#e5baa62145)"><path fill="#7289da" d="M 236.433594 304.753906 C 243.632812 269.710938 254.566406 236.546875 268.832031 205.066406 C 228.828125 177.78125 207.480469 117.214844 188.886719 51.726562 C 190.917969 50.234375 192.238281 47.839844 192.238281 45.121094 C 192.238281 41.65625 190.074219 38.707031 187.027344 37.5 C 187.027344 51.019531 187.027344 212.992188 187.027344 220.460938 C 194.285156 221.859375 199.742188 228.234375 199.742188 235.894531 C 199.742188 244.570312 192.714844 251.617188 184.023438 251.617188 C 175.347656 251.617188 168.300781 244.570312 168.300781 235.894531 C 168.300781 228.234375 173.777344 221.859375 181.015625 220.460938 C 181.015625 212.992188 181.015625 51.019531 181.015625 37.5 C 177.972656 38.707031 175.808594 41.65625 175.808594 45.121094 C 175.808594 47.839844 177.128906 50.234375 179.160156 51.726562 C 160.566406 117.214844 139.214844 177.78125 99.214844 205.066406 C 113.480469 236.546875 124.414062 269.710938 131.613281 304.753906 C 134.5625 304.753906 233.484375 304.753906 236.433594 304.753906 " fill-opacity="1" fill-rule="nonzero"/></g><g clip-path="url(#90be1ddc8e)"><g clip-path="url(#ee837ea1cd)"><path fill="#0c70c2" d="M -1.15625 0 L 1.15625 0 L 1.15625 2.316406 L -1.15625 2.316406 Z M -1.15625 0 " fill-opacity="1" fill-rule="nonzero"/></g></g></svg>